<?xml version="1.0" standalone="no"?>
<!DOCTYPE svg PUBLIC "-//W3C//DTD SVG 20010904//EN"
 "http://www.w3.org/TR/2001/REC-SVG-20010904/DTD/svg10.dtd">
<svg version="1.0" xmlns="http://www.w3.org/2000/svg"
 width="400.000000pt" height="400.000000pt" viewBox="0 0 400.000000 400.000000"
 preserveAspectRatio="xMidYMid meet">
<metadata>
Created by potrace 1.14, written by Peter Selinger 2001-2017
</metadata>
<g transform="translate(0.000000,400.000000) scale(0.100000,-0.100000)"
fill="#000000" stroke="none">
<path d="M2434 2792 c-6 -4 -16 -17 -22 -29 -25 -46 -522 -1445 -522 -1467 0
-31 16 -36 105 -36 52 0 78 4 89 15 8 8 43 100 78 205 l63 190 312 0 c172 0
313 -1 313 -3 0 -23 135 -385 147 -394 22 -17 175 -17 191 -1 7 7 12 19 12 28
0 8 -117 341 -260 740 -182 508 -266 730 -281 743 -17 14 -40 17 -118 17 -53
0 -101 -4 -107 -8z m232 -592 c68 -195 124 -358 124 -362 0 -5 -115 -8 -255
-8 -140 0 -255 3 -255 6 0 20 255 743 259 732 2 -7 59 -173 127 -368z"/>
<path d="M770 2770 c-20 -20 -20 -33 -20 -755 0 -844 -13 -755 109 -755 50 0
74 4 85 16 14 13 16 58 16 340 l0 324 103 0 c86 0 110 -4 152 -24 96 -44 126
-93 251 -415 46 -119 92 -222 101 -228 21 -16 156 -17 184 -2 16 8 19 17 14
40 -9 39 -174 448 -210 518 -30 60 -116 157 -148 167 -16 5 -6 14 54 45 90 47
160 120 190 198 31 79 31 223 0 303 -30 77 -97 150 -174 187 -112 55 -156 61
-434 61 -240 0 -254 -1 -273 -20z m550 -177 c89 -41 132 -113 132 -222 0 -84
-23 -142 -74 -186 -62 -52 -114 -66 -275 -72 l-143 -6 0 258 0 257 158 -4
c133 -3 164 -7 202 -25z"/>
</g>
</svg>
